g default
v -34.641 60 1E-05
v -17.3205 60 -29.99999
v -17.3205 5E-06 -30
v -34.641 0 0
v -17.3205 5E-06 -30
v -17.3205 60 -29.99999
v 17.3205 60 -29.99999
v 17.3205 5E-06 -30
v 34.641 0 0
v 17.3205 5E-06 -30
v 17.3205 60 -29.99999
v 34.641 60 1E-05
v 17.3205 -5E-06 30
v 34.641 0 0
v 34.641 60 1E-05
v 17.3205 60 30.00001
v 17.3205 -5E-06 30
v 17.3205 60 30.00001
v -17.3205 60 30.00001
v -17.3205 -5E-06 30
v -17.3205 60 30.00001
v -34.641 60 1E-05
v -34.641 0 0
v -17.3205 -5E-06 30
v -17.3205 -5E-06 30
v -34.641 0 0
v -17.3205 5E-06 -30
v 17.3205 -5E-06 30
v 17.3205 5E-06 -30
v 34.641 0 0
v -17.3205 60 -29.99999
v -34.641 60 1E-05
v -17.3205 60 30.00001
v 17.3205 60 -29.99999
v 17.3205 60 30.00001
v 34.641 60 1E-05

vn -0.8660191 0 -0.500011
vn -0.8660191 0 -0.500011
vn -0.8660191 0 -0.500011
vn -0.8660191 0 -0.500011
vn 0 0 -1
vn 0 0 -1
vn 0 0 -1
vn 0 0 -1
vn 0.8660191 0 -0.500011
vn 0.8660191 0 -0.500011
vn 0.8660191 0 -0.500011
vn 0.8660191 0 -0.500011
vn 0.8660191 0 0.500011
vn 0.8660191 0 0.500011
vn 0.8660191 0 0.500011
vn 0.8660191 0 0.500011
vn 0 0 1
vn 0 0 1
vn 0 0 1
vn 0 0 1
vn -0.8660191 0 0.500011
vn -0.8660191 0 0.500011
vn -0.8660191 0 0.500011
vn -0.8660191 0 0.500011
vn 0 -1 0
vn 0 -1 0
vn 0 -1 0
vn 0 -1 0
vn 0 -1 0
vn 0 -1 0
vn 0 1 0
vn 0 1 0
vn 0 1 0
vn 0 1 0
vn 0 1 0
vn 0 1 0

vt 0.000223 0.717941
vt 0.192416 0.717941
vt 0.192416 0.385054
vt 0.000223 0.385054
vt 0.66689 0.66689
vt 0.66689 0.999777
vt 0.859082 0.999777
vt 0.859082 0.66689
vt 0.66689 0.33311
vt 0.859082 0.33311
vt 0.859082 0.000223
vt 0.66689 0.000223
vt 0.474251 0.717941
vt 0.666443 0.717941
vt 0.666443 0.385054
vt 0.474251 0.385054
vt 0.281612 0.385054
vt 0.281612 0.717941
vt 0.473804 0.717941
vt 0.473804 0.385054
vt 0.66689 0.666443
vt 0.859082 0.666443
vt 0.859082 0.333557
vt 0.66689 0.333557
vt 0.000223 0.096319
vt 0.000223 0.288512
vt 0.166667 0.384608
vt 0.166667 0.000223
vt 0.33311 0.288512
vt 0.33311 0.096319
vt 0.5 0.000223
vt 0.333557 0.096319
vt 0.333557 0.288512
vt 0.666443 0.096319
vt 0.5 0.384608
vt 0.666443 0.288512


f 1/1/1 2/2/2 3/3/3
f 3/3/3 4/4/4 1/1/1
f 5/5/5 6/6/6 7/7/7
f 7/7/7 8/8/8 5/5/5
f 9/9/9 10/10/10 11/11/11
f 11/11/11 12/12/12 9/9/9
f 13/13/13 14/14/14 15/15/15
f 15/15/15 16/16/16 13/13/13
f 17/17/17 18/18/18 19/19/19
f 19/19/19 20/20/20 17/17/17
f 21/21/21 22/22/22 23/23/23
f 23/23/23 24/24/24 21/21/21
f 25/25/25 26/26/26 27/27/27
f 28/28/28 25/25/25 27/27/27
f 28/28/28 27/27/27 29/29/29
f 29/29/29 30/30/30 28/28/28
f 31/31/31 32/32/32 33/33/33
f 34/34/34 31/31/31 33/33/33
f 34/34/34 33/33/33 35/35/35
f 35/35/35 36/36/36 34/34/34
