# Blender v2.90.1 OBJ File: 'robojob_paper_obj3.blend'
# www.blender.org
mtllib obj_1.mtl
o obj_000001_000001_cube_50x50x25
v 25.000000 25.000002 -12.499996
v -25.000000 -24.999998 -12.500004
v -25.000000 25.000002 -12.499996
v 25.000000 -24.999998 -12.500004
v 25.000000 -25.000002 12.499996
v -25.000000 24.999998 12.500004
v -25.000000 -25.000002 12.499996
v 25.000000 24.999998 12.500004
vt 1.000000 0.000000
vt 0.750000 0.500000
vt 0.750000 0.000000
vt 1.000000 0.500000
vt 0.750000 0.500000
vt 1.000000 1.000000
vt 0.750000 1.000000
vt 1.000000 0.500000
vt 0.500000 1.000000
vt 0.500000 0.500000
vt 0.750000 1.000000
vt 0.750000 0.500000
vt 0.500000 0.000000
vt 0.500000 0.500000
vt 0.000000 0.500000
vt 0.500000 1.000000
vt 0.000000 1.000000
vt 0.500000 0.500000
vt 0.000000 0.000000
vt 0.500000 0.500000
vt 0.000000 0.500000
vt 0.500000 0.000000
vn 0.0000 -1.0000 -0.0000
vn -1.0000 0.0000 0.0000
vn 0.0000 1.0000 0.0000
vn 1.0000 0.0000 0.0000
vn 0.0000 0.0000 -1.0000
vn 0.0000 -0.0000 1.0000
usemtl side_material
s 1
f 5/1/1 2/2/1 4/3/1
f 2/2/1 5/1/1 7/4/1
f 6/5/2 2/6/2 7/7/2
f 2/6/2 6/5/2 3/8/2
f 6/5/3 1/9/3 3/10/3
f 1/9/3 6/5/3 8/11/3
f 1/12/4 5/13/4 4/3/4
f 5/13/4 1/12/4 8/14/4
usemtl top_material
f 1/15/5 2/16/5 3/17/5
f 2/16/5 1/15/5 4/18/5
f 5/19/6 6/20/6 7/21/6
f 6/20/6 5/19/6 8/22/6
