# Blender v2.90.1 OBJ File: 'robojob_paper_obj3.blend'
# www.blender.org
mtllib obj_000002.mtl
o obj_000002
v -40.000000 -40.000015 49.999985
v -40.000000 39.999985 50.000015
v -40.000000 -40.000000 -0.000014
v -40.000000 40.000000 0.000014
v 40.000000 -40.000000 -0.000014
v 40.000000 -40.000015 49.999985
v 40.000000 40.000000 0.000014
v 40.000000 39.999985 50.000015
vt 0.000000 0.500000
vt 0.444444 0.500000
vt 0.444444 1.000000
vt 0.000000 1.000000
vt 0.722222 0.500000
vt 0.444444 0.500000
vt 0.444444 0.000000
vt 0.722222 0.000000
vt 0.722222 0.500000
vt 1.000000 0.500000
vt 1.000000 1.000000
vt 0.722222 1.000000
vt 0.722222 0.500000
vt 0.444444 1.000000
vt 0.444444 0.500000
vt 0.000000 0.500000
vt 0.000000 0.000000
vt 0.722222 0.000000
vt 1.000000 0.000000
vn 0.0000 0.0000 -1.0000
vn 1.0000 0.0000 0.0000
vn -1.0000 0.0000 0.0000
vn 0.0000 -1.0000 -0.0000
vn 0.0000 -0.0000 1.0000
vn 0.0000 1.0000 0.0000
usemtl Default_OBJ
s 1
f 4/1/1 7/2/1 5/3/1 3/4/1
f 7/5/2 8/6/2 6/7/2 5/8/2
f 2/9/3 4/10/3 3/11/3 1/12/3
f 6/13/4 1/12/4 3/14/4 5/15/4
f 8/6/5 2/16/5 1/17/5 6/7/5
f 8/18/6 7/19/6 4/10/6 2/9/6
