# Blender v2.80 (sub 75) OBJ File: ''
# www.blender.org
mtllib Cube.mtl
o Cube_Cube.001
v -30.000000 60.000004 -29.999990
v 30.000000 59.999996 30.000010
v 30.000000 60.000004 -29.999990
v -30.000000 59.999996 30.000010
v -30.000000 -0.000005 30.000000
v 30.000000 0.000005 -30.000000
v 30.000000 -0.000005 30.000000
v -30.000000 0.000005 -30.000000
v -30.000000 -0.000005 30.000000
v 30.000000 59.999996 30.000010
v -30.000000 59.999996 30.000010
v 30.000000 -0.000005 30.000000
v 30.000000 59.999996 30.000010
v 30.000000 0.000005 -30.000000
v 30.000000 60.000004 -29.999990
v 30.000000 -0.000005 30.000000
v 30.000000 0.000005 -30.000000
v -30.000000 60.000004 -29.999990
v 30.000000 60.000004 -29.999990
v -30.000000 0.000005 -30.000000
v -30.000000 -0.000005 30.000000
v -30.000000 60.000004 -29.999990
v -30.000000 0.000005 -30.000000
v -30.000000 59.999996 30.000010
vt 0.333533 0.333533
vt 0.666467 0.666467
vt 0.333533 0.666467
vt 0.666467 0.333533
vt 0.666467 0.000200
vt 0.333533 0.333134
vt 0.333533 0.000200
vt 0.666467 0.333134
vt 0.666866 0.000200
vt 0.999800 0.333134
vt 0.666866 0.333133
vt 0.999800 0.000200
vt 0.000200 0.000200
vt 0.333134 0.333134
vt 0.000200 0.333134
vt 0.333134 0.000200
vt 0.333134 0.999800
vt 0.000200 0.666866
vt 0.333134 0.666866
vt 0.000200 0.999800
vt 0.000200 0.666467
vt 0.333134 0.333533
vt 0.333134 0.666467
vt 0.000200 0.333533
vn 0.0000 1.0000 0.0000
vn 0.0000 -1.0000 -0.0000
vn 0.0000 -0.0000 1.0000
vn 1.0000 -0.0000 0.0000
vn 0.0000 0.0000 -1.0000
vn -1.0000 0.0000 0.0000
usemtl None
s 1
f 1/1/1 2/2/1 3/3/1
f 2/2/1 1/1/1 4/4/1
f 5/5/2 6/6/2 7/7/2
f 6/6/2 5/5/2 8/8/2
f 9/9/3 10/10/3 11/11/3
f 10/10/3 9/9/3 12/12/3
f 13/13/4 14/14/4 15/15/4
f 14/14/4 13/13/4 16/16/4
f 17/17/5 18/18/5 19/19/5
f 18/18/5 17/17/5 20/20/5
f 21/21/6 22/22/6 23/23/6
f 22/22/6 21/21/6 24/24/6
